<?xml version="1.0" encoding="UTF-8"?>
<svg width="280mm" height="50mm" version="1.1" viewBox="0 0 280 50" xml:space="preserve" xmlns="http://www.w3.org/2000/svg"><path d="m155.74 13.096c-2.8544-0.01227-6.4494 1.5678-8.3902 3.6876-2.3723 2.5911-3.333 5.8183-2.8169 9.4625 0.50514 3.567 2.6863 6.6338 5.8617 8.2419 2.6561 1.3451 5.0699 1.6337 8.1721 0.97617l5.1e-4 -5.17e-4c1.89-0.4006 3.3278-1.0554 4.5904-2.0908 0.76982-0.6313 0.77921-0.66451 0.31575-1.1767-0.47378-0.52353-0.4864-0.52122-1.8123 0.37104-1.9348 1.3021-3.8519 1.7899-6.3598 1.618-3.7679-0.25826-6.7505-2.2041-8.3401-5.441-0.66233-1.3487-0.73535-1.7735-0.73535-4.2757 0-2.5027 0.07298-2.9268 0.73587-4.2767 2.6242-5.3438 9.7028-7.1844 14.699-3.822 1.3259 0.89226 1.3385 0.89507 1.8123 0.37155 0.46347-0.51213 0.45459-0.54586-0.31523-1.1772-1.7576-1.4413-4.8101-2.4569-7.4176-2.4681zm18.136 0.21394v1.3136l5.2255 0.10335c4.7287 0.09321 5.3502 0.1597 6.5386 0.69918 1.6042 0.72823 2.1732 1.2245 2.7905 2.434 1.2499 2.449 0.80113 5.5559-1.0434 7.2223-1.6382 1.48-3.047 1.7673-8.6646 1.7673h-4.8467v8.7312h1.5875v-3.5719-3.5719h3.1378c1.7259 0 3.6607-0.063377 4.2995-0.14108l1.1617-0.14159 2.6014 3.7135c2.5037 3.5739 2.636 3.713 3.529 3.713h0.9276l-1.2697-1.7859c-0.69818-0.98227-1.8992-2.6667-2.6691-3.7434-0.7698-1.0767-1.3994-2.0459-1.3994-2.1539 0-0.10804 0.27508-0.26546 0.61133-0.34985 1.1824-0.29675 2.8112-1.7403 3.5466-3.143 0.62985-1.2013 0.72972-1.6991 0.73018-3.6406 5.3e-4 -2.654-0.51812-3.8867-2.2639-5.3811-1.9041-1.6298-2.8767-1.8408-9.0403-1.9637l-5.4901-0.10955zm50.8 0.008268v1.3002l5.3645 0.10077c5.3321 0.10053 5.3738 0.10577 6.9164 0.88625 2.1123 1.0687 2.8857 2.2576 3.0205 4.6426 0.16869 2.9854-0.81125 4.8402-3.1135 5.8916-1.0708 0.48902-1.8295 0.56271-6.6978 0.65371l-5.4901 0.10284v8.6847h1.5875v-3.5305-3.5305l4.577-0.15761c3.7966-0.13046 4.8402-0.25548 6.12-0.73432 1.9036-0.71223 3.5062-2.1182 4.2049-3.6887 0.74852-1.6823 0.72302-4.4582-0.05684-6.2177-0.78452-1.7701-1.6154-2.5821-3.5605-3.4809-1.6024-0.74041-1.7142-0.7535-7.2497-0.83716l-5.6224-0.085266zm-210.07 0.037724v1.3224h14.552v-0.66094-0.66146h-14.552zm21.954 0v1.3229h8.2021v20.902h1.5875v-10.451-10.451h7.9375v-1.3229h-17.727zm26.194 0v22.225h1.5875v-5.2917-5.2917h15.081v10.583h1.5875v-22.225h-1.5875v10.054h-15.081v-10.054h-1.5875zm30.432 0v1.3224h14.552v-0.66094-0.66146h-14.552zm25.924 0v1.2676l5.2255 0.099735c4.9692 0.09441 5.2984 0.13285 6.7092 0.7891 2.4418 1.1359 3.6548 3.4014 3.2908 6.1464-0.20721 1.5621-0.63403 2.4395-1.6418 3.375-1.6938 1.5724-2.1448 1.6709-8.0936 1.7704l-5.4901 0.091984v8.6847h1.5875l5.1e-4 -3.5719v-3.5719l3.3734-0.002584c1.8554-0.0016 3.7902-0.06419 4.2995-0.13901l0.92604-0.13591 2.6014 3.7104c2.5034 3.5712 2.6362 3.7109 3.529 3.7109h0.92759l-1.2692-1.7859c-0.69818-0.98227-1.8992-2.6667-2.6691-3.7434-0.7698-1.0767-1.3999-2.035-1.3999-2.1296 0-0.09458 0.4337-0.32871 0.96377-0.52038 1.5554-0.56244 3.1717-2.383 3.6856-4.1507 0.81941-2.8187 0.24812-5.5375-1.5699-7.4698-1.868-1.9854-3.6573-2.418-10.025-2.4221l-4.9609-0.003101zm128.06 0v1.3229h7.9375v20.902h1.8521v-10.451-10.451h7.9375v-1.3229h-17.727zm-31.466 0.022738c-0.15963 0.008013-0.3059 0.030562-0.39998 0.066662-0.18815 0.0722-2.0996 3.0036-4.2478 6.5138-2.1482 3.5102-3.98 6.3103-4.0706 6.2224-0.0905-0.08791-1.8981-2.9799-4.0173-6.4265-3.6255-5.8966-3.9028-6.2715-4.6964-6.3495-0.46386-0.0456-0.84336-0.007587-0.84336 0.084233 0 0.09186 1.9645 3.3725 4.3656 7.2905l4.3651 7.1236v7.6771h1.5875l0.01034-3.7703 0.00878-3.7703 4.4788-7.276c3.8993-6.3347 4.4087-7.2871 3.9398-7.3629-0.14812-0.023945-0.32096-0.030751-0.48059-0.022737zm-201.1 10.023v1.5958h14.587l-0.083199-0.7276-0.083716-0.7276-14.42-0.14056zm78.714 0.14056-0.16743 1.4552h14.622l-0.08372-0.7276-0.08371-0.7276h-14.287zm-78.72 10.716v1.3229h14.552v-0.66146-0.66146h-14.552zm78.582 0v1.3229h14.552v-0.66146-0.66146h-14.552z" fill="#fff"/></svg>
